<svg width="138" height="124" viewBox="0 0 138 124" fill="none" xmlns="http://www.w3.org/2000/svg">
<path d="M132.48 0H5.52C2.46675 0 0 2.2165 0 4.96V119.04C0 121.784 2.46675 124 5.52 124H132.48C135.533 124 138 121.784 138 119.04V4.96C138 2.2165 135.533 0 132.48 0ZM116.541 36.1925H105.518C96.876 36.1925 95.2028 39.8815 95.2028 45.3065V57.257H115.834L113.143 75.9655H95.2028V124H73.692V75.981H55.7002V57.257H73.692V43.462C73.692 27.4505 84.5768 18.724 100.481 18.724C108.106 18.724 114.644 19.2355 116.558 19.468V36.1925H116.541Z" fill="white"/>
</svg>
