<svg width="138" height="124" viewBox="0 0 138 124" fill="none" xmlns="http://www.w3.org/2000/svg">
<path d="M68.9815 41.3245C56.3116 41.3245 45.9721 50.6153 45.9721 62C45.9721 73.3847 56.3116 82.6755 68.9815 82.6755C81.6513 82.6755 91.9908 73.3847 91.9908 62C91.9908 50.6153 81.6513 41.3245 68.9815 41.3245ZM137.992 62C137.992 53.4382 138.079 44.954 137.544 36.4077C137.008 26.481 134.488 17.671 126.41 10.4121C118.314 3.13773 108.527 0.888711 97.4799 0.407886C87.9517 -0.0729391 78.5097 0.0046135 68.9987 0.0046135C59.4704 0.0046135 50.0285 -0.0729391 40.5175 0.407886C29.4702 0.888711 19.6658 3.15324 11.5875 10.4121C3.49193 17.6866 0.98903 26.481 0.453929 36.4077C-0.0811727 44.9695 0.00513428 53.4537 0.00513428 62C0.00513428 70.5463 -0.0811727 79.046 0.453929 87.5923C0.98903 97.519 3.50919 106.329 11.5875 113.588C19.6831 120.862 29.4702 123.111 40.5175 123.592C50.0458 124.073 59.4877 123.995 68.9987 123.995C78.527 123.995 87.9689 124.073 97.4799 123.592C108.527 123.111 118.332 120.847 126.41 113.588C134.506 106.313 137.008 97.519 137.544 87.5923C138.096 79.046 137.992 70.5618 137.992 62V62ZM68.9815 93.812C49.3898 93.812 33.5784 79.6044 33.5784 62C33.5784 44.3956 49.3898 30.188 68.9815 30.188C88.5731 30.188 104.384 44.3956 104.384 62C104.384 79.6044 88.5731 93.812 68.9815 93.812ZM105.834 36.3146C101.26 36.3146 97.5662 32.9954 97.5662 28.8851C97.5662 24.7748 101.26 21.4556 105.834 21.4556C110.409 21.4556 114.103 24.7748 114.103 28.8851C114.104 29.8611 113.891 30.8278 113.476 31.7297C113.061 32.6317 112.452 33.4512 111.684 34.1413C110.916 34.8315 110.004 35.3787 109 35.7516C107.996 36.1245 106.921 36.3159 105.834 36.3146V36.3146Z" fill="white"/>
</svg>
