<svg width="958" height="305" viewBox="0 0 958 305" fill="none" xmlns="http://www.w3.org/2000/svg">
<rect x="88" width="147" height="305" rx="30" fill="#FFDF5B"/>
<rect x="723" width="147" height="305" rx="30" fill="#FFDF5B"/>
<rect y="65" width="78" height="175" rx="25" fill="#FFDF5B"/>
<rect x="880" y="65" width="78" height="175" rx="25" fill="#FFDF5B"/>
<path d="M299.858 131.732C299.659 129.727 298.806 128.169 297.298 127.059C295.79 125.949 293.743 125.393 291.158 125.393C289.401 125.393 287.918 125.642 286.708 126.139C285.499 126.62 284.571 127.291 283.924 128.153C283.295 129.014 282.98 129.992 282.98 131.086C282.947 131.997 283.137 132.793 283.551 133.472C283.982 134.152 284.571 134.74 285.316 135.237C286.062 135.718 286.924 136.14 287.902 136.505C288.879 136.853 289.923 137.151 291.034 137.4L295.608 138.494C297.828 138.991 299.867 139.654 301.723 140.482C303.579 141.311 305.186 142.33 306.545 143.54C307.904 144.75 308.956 146.175 309.702 147.815C310.464 149.456 310.854 151.337 310.87 153.458C310.854 156.574 310.058 159.275 308.484 161.562C306.926 163.832 304.672 165.597 301.723 166.857C298.789 168.099 295.251 168.721 291.108 168.721C286.998 168.721 283.419 168.091 280.37 166.832C277.337 165.572 274.967 163.708 273.26 161.239C271.57 158.753 270.683 155.679 270.6 152.016H281.016C281.132 153.723 281.621 155.148 282.483 156.292C283.361 157.419 284.529 158.272 285.988 158.852C287.462 159.416 289.128 159.697 290.984 159.697C292.807 159.697 294.39 159.432 295.732 158.902C297.091 158.372 298.143 157.634 298.889 156.69C299.635 155.745 300.007 154.66 300.007 153.433C300.007 152.29 299.668 151.329 298.988 150.55C298.325 149.771 297.348 149.108 296.055 148.561C294.779 148.014 293.213 147.517 291.357 147.07L285.814 145.678C281.521 144.634 278.132 143.001 275.647 140.781C273.161 138.56 271.926 135.569 271.943 131.807C271.926 128.724 272.747 126.031 274.404 123.728C276.078 121.424 278.373 119.626 281.289 118.334C284.206 117.041 287.52 116.395 291.233 116.395C295.011 116.395 298.309 117.041 301.126 118.334C303.96 119.626 306.164 121.424 307.738 123.728C309.313 126.031 310.125 128.7 310.174 131.732H299.858ZM318.11 168V117.091H352.414V125.965H328.874V138.096H350.649V146.97H328.874V159.126H352.514V168H318.11ZM388.589 131.732C388.39 129.727 387.536 128.169 386.028 127.059C384.52 125.949 382.474 125.393 379.888 125.393C378.132 125.393 376.649 125.642 375.439 126.139C374.229 126.62 373.301 127.291 372.655 128.153C372.025 129.014 371.71 129.992 371.71 131.086C371.677 131.997 371.868 132.793 372.282 133.472C372.713 134.152 373.301 134.74 374.047 135.237C374.793 135.718 375.654 136.14 376.632 136.505C377.61 136.853 378.654 137.151 379.764 137.4L384.338 138.494C386.559 138.991 388.597 139.654 390.453 140.482C392.309 141.311 393.917 142.33 395.276 143.54C396.634 144.75 397.687 146.175 398.433 147.815C399.195 149.456 399.584 151.337 399.601 153.458C399.584 156.574 398.789 159.275 397.214 161.562C395.657 163.832 393.403 165.597 390.453 166.857C387.52 168.099 383.982 168.721 379.839 168.721C375.729 168.721 372.149 168.091 369.1 166.832C366.067 165.572 363.698 163.708 361.991 161.239C360.3 158.753 359.414 155.679 359.331 152.016H369.746C369.862 153.723 370.351 155.148 371.213 156.292C372.091 157.419 373.26 158.272 374.718 158.852C376.193 159.416 377.858 159.697 379.714 159.697C381.537 159.697 383.12 159.432 384.462 158.902C385.821 158.372 386.874 157.634 387.619 156.69C388.365 155.745 388.738 154.66 388.738 153.433C388.738 152.29 388.398 151.329 387.719 150.55C387.056 149.771 386.078 149.108 384.786 148.561C383.509 148.014 381.943 147.517 380.087 147.07L374.544 145.678C370.252 144.634 366.863 143.001 364.377 140.781C361.891 138.56 360.657 135.569 360.673 131.807C360.657 128.724 361.477 126.031 363.134 123.728C364.808 121.424 367.103 119.626 370.02 118.334C372.937 117.041 376.251 116.395 379.963 116.395C383.741 116.395 387.039 117.041 389.857 118.334C392.69 119.626 394.894 121.424 396.469 123.728C398.043 126.031 398.855 128.7 398.905 131.732H388.589ZM406.841 168V117.091H417.604V138.096H439.454V117.091H450.193V168H439.454V146.97H417.604V168H406.841ZM467.842 168H456.308L473.883 117.091H487.753L505.303 168H493.769L481.017 128.724H480.619L467.842 168ZM467.121 147.989H494.366V156.391H467.121V147.989ZM561.389 133.547C561.041 132.337 560.552 131.268 559.922 130.34C559.292 129.396 558.522 128.6 557.61 127.954C556.716 127.291 555.688 126.786 554.528 126.438C553.385 126.089 552.117 125.915 550.725 125.915C548.123 125.915 545.836 126.562 543.864 127.854C541.908 129.147 540.384 131.028 539.29 133.497C538.196 135.95 537.65 138.949 537.65 142.496C537.65 146.042 538.188 149.058 539.265 151.544C540.342 154.03 541.867 155.927 543.839 157.237C545.811 158.529 548.14 159.175 550.824 159.175C553.26 159.175 555.34 158.745 557.064 157.883C558.804 157.004 560.129 155.77 561.041 154.179C561.969 152.588 562.433 150.707 562.433 148.536L564.62 148.859H551.495V140.756H572.799V147.169C572.799 151.643 571.854 155.488 569.965 158.703C568.076 161.902 565.474 164.371 562.159 166.111C558.845 167.834 555.05 168.696 550.775 168.696C546.002 168.696 541.809 167.644 538.196 165.539C534.584 163.418 531.766 160.41 529.745 156.516C527.739 152.605 526.737 147.964 526.737 142.595C526.737 138.469 527.333 134.79 528.527 131.558C529.736 128.31 531.427 125.559 533.598 123.305C535.769 121.052 538.296 119.336 541.179 118.16C544.063 116.983 547.187 116.395 550.551 116.395C553.434 116.395 556.119 116.817 558.605 117.663C561.091 118.491 563.295 119.668 565.217 121.192C567.156 122.717 568.739 124.532 569.965 126.636C571.191 128.724 571.978 131.028 572.326 133.547H561.389ZM575.85 117.091H587.906L599.515 139.016H600.012L611.621 117.091H623.677L605.108 150.003V168H594.419V150.003L575.85 117.091ZM629.556 117.091H642.83L656.85 151.295H657.446L671.466 117.091H684.74V168H674.3V134.864H673.877L660.703 167.751H653.593L640.419 134.74H639.996V168H629.556V117.091Z" fill="white"/>
<path d="M366.936 231V207.727H381.845V211.261H371.152V217.58H380.822V221.114H371.152V231H366.936ZM389.902 207.727V231H385.686V207.727H389.902ZM393.445 211.261V207.727H412.013V211.261H404.82V231H400.638V211.261H393.445ZM434.717 207.727V231H430.967L420.001 215.148H419.808V231H415.592V207.727H419.365L430.32 223.591H430.524V207.727H434.717ZM439.311 231V207.727H454.447V211.261H443.527V217.58H453.663V221.114H443.527V227.466H454.538V231H439.311ZM471.396 214.125C471.29 213.133 470.843 212.36 470.055 211.807C469.275 211.254 468.26 210.977 467.01 210.977C466.131 210.977 465.377 211.11 464.749 211.375C464.12 211.64 463.639 212 463.305 212.455C462.972 212.909 462.802 213.428 462.794 214.011C462.794 214.496 462.904 214.917 463.124 215.273C463.351 215.629 463.658 215.932 464.044 216.182C464.43 216.424 464.858 216.629 465.328 216.795C465.798 216.962 466.271 217.102 466.749 217.216L468.93 217.761C469.809 217.966 470.654 218.242 471.464 218.591C472.283 218.939 473.014 219.379 473.658 219.909C474.309 220.439 474.824 221.08 475.203 221.83C475.582 222.58 475.771 223.458 475.771 224.466C475.771 225.83 475.423 227.03 474.726 228.068C474.029 229.098 473.021 229.905 471.703 230.489C470.393 231.064 468.805 231.352 466.942 231.352C465.131 231.352 463.559 231.072 462.226 230.511C460.9 229.951 459.862 229.133 459.112 228.057C458.37 226.981 457.968 225.67 457.908 224.125H462.055C462.116 224.936 462.366 225.61 462.805 226.148C463.245 226.686 463.817 227.087 464.521 227.352C465.233 227.617 466.029 227.75 466.908 227.75C467.824 227.75 468.627 227.614 469.317 227.341C470.014 227.061 470.559 226.674 470.953 226.182C471.347 225.682 471.548 225.098 471.555 224.432C471.548 223.826 471.37 223.326 471.021 222.932C470.673 222.53 470.184 222.197 469.555 221.932C468.934 221.659 468.207 221.417 467.374 221.205L464.726 220.523C462.809 220.03 461.294 219.284 460.18 218.284C459.074 217.277 458.521 215.939 458.521 214.273C458.521 212.902 458.893 211.701 459.635 210.67C460.385 209.64 461.404 208.841 462.692 208.273C463.98 207.697 465.438 207.409 467.067 207.409C468.718 207.409 470.165 207.697 471.408 208.273C472.658 208.841 473.639 209.633 474.351 210.648C475.063 211.655 475.43 212.814 475.453 214.125H471.396ZM492.178 214.125C492.071 213.133 491.625 212.36 490.837 211.807C490.056 211.254 489.041 210.977 487.791 210.977C486.912 210.977 486.159 211.11 485.53 211.375C484.901 211.64 484.42 212 484.087 212.455C483.753 212.909 483.583 213.428 483.575 214.011C483.575 214.496 483.685 214.917 483.905 215.273C484.132 215.629 484.439 215.932 484.825 216.182C485.212 216.424 485.64 216.629 486.109 216.795C486.579 216.962 487.053 217.102 487.53 217.216L489.712 217.761C490.59 217.966 491.435 218.242 492.246 218.591C493.064 218.939 493.795 219.379 494.439 219.909C495.09 220.439 495.606 221.08 495.984 221.83C496.363 222.58 496.553 223.458 496.553 224.466C496.553 225.83 496.204 227.03 495.507 228.068C494.81 229.098 493.803 229.905 492.484 230.489C491.174 231.064 489.587 231.352 487.723 231.352C485.912 231.352 484.34 231.072 483.007 230.511C481.681 229.951 480.643 229.133 479.893 228.057C479.151 226.981 478.75 225.67 478.689 224.125H482.837C482.897 224.936 483.147 225.61 483.587 226.148C484.026 226.686 484.598 227.087 485.303 227.352C486.015 227.617 486.81 227.75 487.689 227.75C488.606 227.75 489.409 227.614 490.098 227.341C490.795 227.061 491.34 226.674 491.734 226.182C492.128 225.682 492.329 225.098 492.337 224.432C492.329 223.826 492.151 223.326 491.803 222.932C491.454 222.53 490.965 222.197 490.337 221.932C489.715 221.659 488.988 221.417 488.155 221.205L485.507 220.523C483.59 220.03 482.075 219.284 480.962 218.284C479.856 217.277 479.303 215.939 479.303 214.273C479.303 212.902 479.674 211.701 480.416 210.67C481.166 209.64 482.185 208.841 483.473 208.273C484.761 207.697 486.219 207.409 487.848 207.409C489.5 207.409 490.946 207.697 492.189 208.273C493.439 208.841 494.42 209.633 495.132 210.648C495.844 211.655 496.212 212.814 496.234 214.125H492.178ZM528.169 215.58H523.919C523.798 214.883 523.574 214.265 523.249 213.727C522.923 213.182 522.518 212.72 522.033 212.341C521.548 211.962 520.995 211.678 520.374 211.489C519.76 211.292 519.097 211.193 518.385 211.193C517.12 211.193 515.999 211.511 515.021 212.148C514.044 212.777 513.279 213.701 512.726 214.92C512.173 216.133 511.896 217.614 511.896 219.364C511.896 221.144 512.173 222.644 512.726 223.864C513.286 225.076 514.052 225.992 515.021 226.614C515.999 227.227 517.116 227.534 518.374 227.534C519.071 227.534 519.722 227.443 520.328 227.261C520.942 227.072 521.491 226.795 521.976 226.432C522.468 226.068 522.881 225.621 523.214 225.091C523.555 224.561 523.79 223.955 523.919 223.273L528.169 223.295C528.01 224.402 527.665 225.439 527.135 226.409C526.612 227.379 525.927 228.235 525.078 228.977C524.23 229.712 523.237 230.288 522.101 230.705C520.964 231.114 519.703 231.318 518.317 231.318C516.271 231.318 514.446 230.845 512.839 229.898C511.233 228.951 509.968 227.583 509.044 225.795C508.12 224.008 507.658 221.864 507.658 219.364C507.658 216.856 508.124 214.712 509.055 212.932C509.987 211.144 511.256 209.777 512.862 208.83C514.468 207.883 516.286 207.409 518.317 207.409C519.612 207.409 520.817 207.591 521.93 207.955C523.044 208.318 524.036 208.852 524.908 209.557C525.779 210.254 526.495 211.11 527.055 212.125C527.624 213.133 527.995 214.284 528.169 215.58ZM532.03 231V207.727H536.246V227.466H546.496V231H532.03ZM564.825 207.727H569.041V222.932C569.041 224.598 568.647 226.064 567.859 227.33C567.079 228.595 565.981 229.583 564.564 230.295C563.147 231 561.492 231.352 559.598 231.352C557.696 231.352 556.037 231 554.621 230.295C553.204 229.583 552.106 228.595 551.325 227.33C550.545 226.064 550.155 224.598 550.155 222.932V207.727H554.371V222.58C554.371 223.549 554.583 224.413 555.007 225.17C555.439 225.928 556.045 226.523 556.825 226.955C557.606 227.379 558.53 227.591 559.598 227.591C560.666 227.591 561.59 227.379 562.371 226.955C563.159 226.523 563.765 225.928 564.189 225.17C564.613 224.413 564.825 223.549 564.825 222.58V207.727ZM573.624 231V207.727H582.533C584.214 207.727 585.612 207.992 586.726 208.523C587.847 209.045 588.684 209.761 589.237 210.67C589.798 211.58 590.078 212.61 590.078 213.761C590.078 214.708 589.896 215.519 589.533 216.193C589.169 216.86 588.68 217.402 588.067 217.818C587.453 218.235 586.768 218.534 586.01 218.716V218.943C586.836 218.989 587.627 219.242 588.385 219.705C589.15 220.159 589.775 220.803 590.26 221.636C590.745 222.47 590.987 223.477 590.987 224.659C590.987 225.864 590.696 226.947 590.112 227.909C589.529 228.864 588.65 229.617 587.476 230.17C586.302 230.723 584.824 231 583.044 231H573.624ZM577.839 227.477H582.374C583.904 227.477 585.006 227.186 585.68 226.602C586.362 226.011 586.703 225.254 586.703 224.33C586.703 223.64 586.533 223.019 586.192 222.466C585.851 221.905 585.366 221.466 584.737 221.148C584.108 220.822 583.358 220.659 582.487 220.659H577.839V227.477ZM577.839 217.625H582.01C582.737 217.625 583.393 217.492 583.976 217.227C584.559 216.955 585.018 216.572 585.351 216.08C585.692 215.58 585.862 214.989 585.862 214.307C585.862 213.405 585.544 212.663 584.908 212.08C584.279 211.496 583.343 211.205 582.101 211.205H577.839V217.625Z" fill="white"/>
</svg>
