<svg width="136" height="124" viewBox="0 0 136 124" fill="none" xmlns="http://www.w3.org/2000/svg">
<path d="M130.56 0H5.44C2.431 0 0 2.2165 0 4.96V119.04C0 121.784 2.431 124 5.44 124H130.56C133.569 124 136 121.784 136 119.04V4.96C136 2.2165 133.569 0 130.56 0ZM104.601 44.9035C104.652 45.632 104.652 46.3915 104.652 47.1355C104.652 69.8895 85.646 96.1 50.915 96.1C40.205 96.1 30.277 93.2635 21.913 88.381C23.443 88.536 24.905 88.598 26.469 88.598C35.309 88.598 43.435 85.87 49.912 81.251C41.616 81.096 34.646 76.136 32.266 69.316C35.173 69.7035 37.791 69.7035 40.783 69.006C36.5113 68.2147 32.6719 66.0995 29.9169 63.0196C27.1619 59.9398 25.6613 56.0853 25.67 52.111V51.894C28.169 53.1805 31.11 53.971 34.187 54.0795C31.6003 52.5077 29.479 50.3783 28.0111 47.88C26.5432 45.3817 25.7741 42.5917 25.772 39.7575C25.772 36.549 26.69 33.6195 28.339 31.0775C33.0803 36.3992 38.9968 40.7517 45.7039 43.8521C52.411 46.9524 59.7585 48.7313 67.269 49.073C64.6 37.3705 74.188 27.9 85.714 27.9C91.154 27.9 96.05 29.977 99.501 33.325C103.768 32.5965 107.848 31.1395 111.486 29.1865C110.075 33.17 107.117 36.5335 103.19 38.657C106.998 38.285 110.67 37.324 114.07 35.9755C111.503 39.4165 108.29 42.47 104.601 44.9035V44.9035Z" fill="white"/>
</svg>
