<svg width="178" height="172" viewBox="0 0 178 172" fill="none" xmlns="http://www.w3.org/2000/svg">
<path d="M26.7 73.8279C36.5178 73.8279 44.5 62.8429 44.5 49.3317C44.5 35.8205 36.5178 24.8355 26.7 24.8355C16.8822 24.8355 8.9 35.8205 8.9 49.3317C8.9 62.8429 16.8822 73.8279 26.7 73.8279ZM151.3 73.8279C161.118 73.8279 169.1 62.8429 169.1 49.3317C169.1 35.8205 161.118 24.8355 151.3 24.8355C141.482 24.8355 133.5 35.8205 133.5 49.3317C133.5 62.8429 141.482 73.8279 151.3 73.8279ZM160.2 86.076H142.4C137.505 86.076 133.083 88.7935 129.857 93.1952C141.065 101.654 149.019 116.926 150.744 135.068H169.1C174.023 135.068 178 129.595 178 122.82V110.572C178 97.061 170.018 86.076 160.2 86.076ZM89 86.076C106.216 86.076 120.15 66.9001 120.15 43.2077C120.15 19.5153 106.216 0.339355 89 0.339355C71.7841 0.339355 57.85 19.5153 57.85 43.2077C57.85 66.9001 71.7841 86.076 89 86.076ZM110.36 98.3241H108.052C102.267 102.152 95.8419 104.448 89 104.448C82.1581 104.448 75.7612 102.152 69.9484 98.3241H67.64C49.9512 98.3241 35.6 118.074 35.6 142.417V153.44C35.6 163.583 41.5797 171.813 48.95 171.813H129.05C136.42 171.813 142.4 163.583 142.4 153.44V142.417C142.4 118.074 128.049 98.3241 110.36 98.3241ZM48.1434 93.1952C44.9172 88.7935 40.495 86.076 35.6 86.076H17.8C7.98219 86.076 0 97.061 0 110.572V122.82C0 129.595 3.97719 135.068 8.9 135.068H27.2284C28.9806 116.926 36.935 101.654 48.1434 93.1952Z" fill="#FEFEFE"/>
</svg>
