<svg width="208" height="213" viewBox="0 0 208 213" fill="none" xmlns="http://www.w3.org/2000/svg">
<path d="M104 0C46.5679 0 0 47.6873 0 106.5C0 165.313 46.5679 213 104 213C161.432 213 208 165.313 208 106.5C208 47.6873 161.432 0 104 0ZM144.973 139.234L138.334 148.506C138.19 148.708 138.008 148.878 137.799 149.008C137.59 149.138 137.358 149.224 137.116 149.261C136.874 149.299 136.628 149.287 136.391 149.227C136.154 149.166 135.93 149.059 135.734 148.91L97.3375 120.24C97.0983 120.064 96.9039 119.832 96.7705 119.563C96.6372 119.295 96.5689 118.997 96.5714 118.695V53.25C96.5714 52.204 97.4071 51.3482 98.4286 51.3482H109.595C110.616 51.3482 111.452 52.204 111.452 53.25V112.086L144.555 136.596C145.391 137.19 145.577 138.379 144.973 139.234Z" fill="#FEFEFE"/>
</svg>
