<svg width="178" height="209" viewBox="0 0 178 209" fill="none" xmlns="http://www.w3.org/2000/svg">
<path d="M89 117.246C116.639 117.246 139.062 90.9879 139.062 58.623C139.062 26.2582 116.639 0 89 0C61.3613 0 38.9375 26.2582 38.9375 58.623C38.9375 90.9879 61.3613 117.246 89 117.246ZM133.5 130.273H114.344C106.626 134.426 98.0391 136.787 89 136.787C79.9609 136.787 71.4086 134.426 63.6559 130.273H44.5C19.9207 130.273 0 153.601 0 182.383V188.896C0 199.685 7.47461 208.438 16.6875 208.438H161.312C170.525 208.438 178 199.685 178 188.896V182.383C178 153.601 158.079 130.273 133.5 130.273Z" fill="#FEFEFE"/>
</svg>
